<mxfile host="app.diagrams.net" modified="2023-11-27T09:06:05.656Z" agent="Mozilla/5.0 (Windows NT 10.0; Win64; x64) AppleWebKit/537.36 (KHTML, like Gecko) Chrome/119.0.0.0 Safari/537.36 Edg/119.0.0.0" version="22.1.4" etag="pu5EpZR3bZVAu5rpCyT7" type="github">
  <diagram name="第 1 页" id="4gv3G2_DYUCbwfBhQcV8">
    <mxGraphModel>
      <root>
        <mxCell id="0" />
        <mxCell id="1" parent="0" />
      </root>
    </mxGraphModel>
  </diagram>
</mxfile>
